<svg width="13" height="12" viewBox="0 0 13 12" fill="none" xmlns="http://www.w3.org/2000/svg">
<path d="M6.49726 9.39157C5.19332 8.21925 4.11725 7.251 3.36577 6.38017C2.6115 5.5061 2.2 4.74752 2.2 3.99728C2.2 2.96345 2.97936 2.18992 4.025 2.18992C4.83368 2.18992 5.61997 2.71225 5.89544 3.41262L5.92037 3.47602H5.9885H7.0115H7.07963L7.10456 3.41262C7.38003 2.71225 8.16632 2.18992 8.975 2.18992C10.0206 2.18992 10.8 2.96345 10.8 3.99728C10.8 4.74751 10.3885 5.50609 9.63357 6.38014C8.88141 7.25097 7.80395 8.21925 6.49726 9.39157ZM6.43302 11.0743L6.5 11.1347L6.56698 11.0743L7.36433 10.355C8.7786 9.08434 9.96071 8.02163 10.7881 7.01868C11.6165 6.01443 12.1 5.0577 12.1 3.99728C12.1 2.25714 10.7232 0.9 8.975 0.9C8.02753 0.9 7.11794 1.31909 6.5 1.98382C5.88206 1.31909 4.97248 0.9 4.025 0.9C2.27676 0.9 0.9 2.25714 0.9 3.99728C0.9 5.0577 1.38348 6.01443 2.21192 7.01868C3.03929 8.02163 4.2214 9.08434 5.63567 10.355L6.43302 11.0743Z" fill="black" stroke="black" stroke-width="0.2"/>
</svg>
