<svg width="16" height="14" viewBox="0 0 16 14" fill="none" xmlns="http://www.w3.org/2000/svg">
<path d="M8.03932 11.3397L8.03928 11.3397L8.03749 11.3414L7.9984 11.3787L7.95355 11.3398L7.95352 11.3398C6.2426 9.85925 4.82523 8.63248 3.83513 7.52815C2.84434 6.42306 2.29 5.44967 2.29 4.47676C2.29 3.13329 3.34535 2.12349 4.76 2.12349C5.85077 2.12349 6.91102 2.79988 7.28411 3.7129L7.29682 3.74398H7.3304H8.6696H8.70318L8.71588 3.7129C9.08897 2.79988 10.1492 2.12349 11.24 2.12349C12.6546 2.12349 13.71 3.13329 13.71 4.47676C13.71 5.44967 13.1557 6.42306 12.164 7.52814C11.173 8.63245 9.75382 9.85923 8.03932 11.3397ZM7.96722 13.338L8 13.3664L8.03278 13.338L9.0767 12.4316C10.9297 10.8292 12.472 9.4944 13.5505 8.23608C14.6294 6.97722 15.25 5.78832 15.25 4.47676C15.25 2.32514 13.4829 0.650195 11.24 0.650195C9.99255 0.650195 8.7947 1.19519 8 2.05425C7.2053 1.19519 6.00745 0.650195 4.76 0.650195C2.51711 0.650195 0.749999 2.32514 0.749999 4.47676C0.749999 5.78832 1.3706 6.97722 2.44953 8.23608C3.52801 9.4944 5.07031 10.8292 6.92329 12.4316L7.96722 13.338Z" fill="#3F3F3F" stroke="#828282" stroke-width="0.1"/>
</svg>
